<?xml version="1.0" encoding="UTF-8" standalone="no"?>
<svg width="129px" height="36px" viewBox="0 0 129 36" version="1.1" xmlns="http://www.w3.org/2000/svg" xmlns:xlink="http://www.w3.org/1999/xlink" xmlns:sketch="http://www.bohemiancoding.com/sketch/ns">
    <!-- Generator: Sketch 3.3.1 (12005) - http://www.bohemiancoding.com/sketch -->
    <title>Practo Identity</title>
    <desc>Created with Sketch.</desc>
    <defs></defs>
    <g id="Page-1" stroke="none" stroke-width="1" fill="none" fill-rule="evenodd" sketch:type="MSPage">
        <g id="Login" sketch:type="MSArtboardGroup" transform="translate(-242.000000, -27.000000)">
            <g id="Header" sketch:type="MSLayerGroup">
                <rect id="Rectangle-1" sketch:type="MSShapeGroup" x="0" y="0" width="1425" height="90"></rect>
                <g id="Practo-Identity" transform="translate(242.000000, 27.000000)" fill="#02A6D8" sketch:type="MSShapeGroup">
                    <g id="Practo-Text" transform="translate(10.843478, 0.000000)">
                        <path d="M27.9541217,4.48574579 L27.9541217,9.24053423 L28.179019,8.87998155 C30.1581255,5.68006054 32.1372022,4.08012403 34.1163087,4.08012403 C35.6606114,4.08012403 37.2723596,4.86131369 38.9516014,6.42371644 L36.792587,10.0292432 C35.3682301,8.67716391 34.0488456,8.0011344 32.8343939,8.0011344 C31.5149896,8.0011344 30.3717729,8.63209528 29.4047095,9.89403596 C28.4376461,11.1559766 27.9541217,12.650753 27.9541217,14.3784099 L27.9541217,25.2175248 L23.8385004,25.2175248 L23.8385004,4.48574579 L27.9541217,4.48574579 Z M54.8068636,12.7559228 L54.8068636,21.5669289 C54.8068636,22.2730148 55.0467517,22.6260524 55.5265351,22.6260524 C56.0213117,22.6260524 56.7934515,22.2579919 57.8429776,21.5218598 L57.8429776,24.023194 C56.9133973,24.6241182 56.1674953,25.0334916 55.6052491,25.2513266 C55.043003,25.4691616 54.4545275,25.5780775 53.839805,25.5780775 C52.0855971,25.5780775 51.0510797,24.8870251 50.7362218,23.5048996 C48.997007,24.8569789 47.1453708,25.5330084 45.1812576,25.5330084 C43.7419075,25.5330084 42.542467,25.056032 41.5829002,24.1020649 C40.6233335,23.1480979 40.1435573,21.9500233 40.1435573,20.5078054 C40.1435573,19.2007954 40.6120887,18.0327667 41.5491656,17.0036841 C42.4862426,15.9746015 43.8168718,15.1596104 45.5410933,14.5586862 L50.7812013,12.7559228 L50.7812013,11.6517303 C50.7812013,9.15789511 49.5367818,7.91099623 47.0479055,7.91099623 C44.8139141,7.91099623 42.6399283,9.06775784 40.5258828,11.3813158 L40.5258828,6.89694183 C42.1151652,5.0190539 44.4015986,4.08012403 47.3852515,4.08012403 C49.6192429,4.08012403 51.4109071,4.66601627 52.7602978,5.83781833 C53.2100947,6.21339592 53.6149059,6.71290661 53.9747434,7.3363654 C54.334581,7.95982419 54.5632243,8.58327363 54.6606803,9.20673242 C54.7581363,9.83019121 54.8068636,11.0132429 54.8068636,12.7559228 L54.8068636,12.7559228 Z M50.7812013,21.1162381 L50.7812013,14.964308 L48.0374538,16.0234315 C46.6430833,16.5792863 45.6572932,17.1388885 45.0800538,17.7022549 C44.5028144,18.2656213 44.2141991,18.9679408 44.2141991,19.8092346 C44.2141991,20.6655515 44.4878214,21.3641153 45.0350743,21.904947 C45.5823273,22.4457788 46.2907468,22.7161906 47.1603542,22.7161906 C48.4647652,22.7161906 49.6717022,22.1828784 50.7812013,21.1162381 L50.7812013,21.1162381 Z M76.9817409,20.3725982 L76.9817409,24.4288158 C74.9276683,25.1949941 72.9186055,25.5780775 70.9544923,25.5780775 C67.7159545,25.5780775 65.1334092,24.6166133 63.2067791,22.693656 C61.2801489,20.7706988 60.3168483,18.1942752 60.3168483,14.964308 C60.3168483,11.7042946 61.2539112,9.07529091 63.128065,7.07721816 C65.0022189,5.07914542 67.4685683,4.08012403 70.5271874,4.08012403 C71.5917067,4.08012403 72.5475109,4.18152845 73.3946284,4.38434035 C74.2417459,4.58715225 75.2875081,4.96647992 76.5319462,5.52233474 L76.5319462,9.89403596 C74.4628804,8.57200287 72.5437757,7.91099623 70.7745744,7.91099623 C68.9304071,7.91099623 67.4161135,8.56073571 66.2316483,9.86023415 C65.047183,11.1597326 64.4549593,12.8160049 64.4549593,14.8291007 C64.4549593,16.9473583 65.0959103,18.6299207 66.3778315,19.8768382 C67.6597527,21.1237558 69.3876967,21.7472053 71.5617151,21.7472053 C73.1360043,21.7472053 74.9426615,21.2890075 76.9817409,20.3725982 L76.9817409,20.3725982 Z M78.7359401,7.77578898 L86.427429,0.204182739 L86.427429,4.48574579 L92.9719415,4.48574579 L92.9719415,8.18141074 L86.427429,8.18141074 L86.427429,18.3444894 C86.427429,20.7181397 87.4094709,21.904947 89.3735841,21.904947 C90.8429207,21.904947 92.3946968,21.4091921 94.028959,20.4176673 L94.028959,24.2485395 C92.4546698,25.1349026 90.7379706,25.5780775 88.87881,25.5780775 C87.0046561,25.5780775 85.4453835,25.0297424 84.2009454,23.9330559 C83.8111214,23.6025476 83.4887718,23.2307314 83.2338868,22.817596 C82.9790019,22.4044607 82.7653516,21.8636371 82.5929294,21.195109 C82.4205073,20.5265809 82.3342975,19.253392 82.3342975,17.375504 L82.3342975,8.18141074 L78.7359401,8.18141074 L78.7359401,7.77578898 Z M106.870597,4.44067671 C110.019175,4.44067671 112.635455,5.45847669 114.719514,7.4941072 C116.803573,9.5297377 117.845587,12.0873827 117.845587,15.1671189 C117.845587,18.1567164 116.78858,20.639247 114.674534,22.6147851 C112.560489,24.5903232 109.89923,25.5780775 106.690679,25.5780775 C103.58708,25.5780775 100.99329,24.5753003 98.9092312,22.569716 C96.8251721,20.5641318 95.7831582,18.0590668 95.7831582,15.0544462 C95.7831582,12.0197793 96.8364169,9.49218006 98.9429658,7.47157266 C101.049515,5.45096525 103.692032,4.44067671 106.870597,4.44067671 L106.870597,4.44067671 Z M106.6457,8.13634166 C104.681586,8.13634166 103.069838,8.78232541 101.810407,10.0743123 C100.550975,11.3662992 99.9212692,13.0113043 99.9212692,15.0093771 C99.9212692,16.9924267 100.565968,18.6111418 101.855386,19.865571 C103.144804,21.1200001 104.801531,21.7472053 106.825617,21.7472053 C108.83471,21.7472053 110.480193,21.1124887 111.762114,19.8430364 C113.044035,18.5735842 113.684986,16.9473576 113.684986,14.964308 C113.684986,12.9962815 113.017797,11.3662992 111.6834,10.0743123 C110.349002,8.78232541 108.669786,8.13634166 106.6457,8.13634166 L106.6457,8.13634166 Z" id="practo"></path>
                        <path d="M0.26925962,19.1996575 L0.26925962,35.7862252 L4.45235007,35.7862252 L4.45235007,24.6992303 C6.05662575,25.2851313 7.51844382,25.5780775 8.83784812,25.5780775 C11.821501,25.5780775 14.2766057,24.5790561 16.2032359,22.5809833 C18.129866,20.5829106 19.0931666,18.0290213 19.0931666,14.9192389 C19.0931666,11.6291793 18.069894,9.06777857 16.023318,7.23495996 C13.976742,5.40214135 11.1168262,4.48574579 7.44348464,4.48574579 L0.26925962,4.48574579 L0.26925962,12.0059159 C1.71692394,12.5564294 2.74587787,13.9592061 2.74587787,15.6027867 C2.74587787,17.2463673 1.71692394,18.649144 0.26925962,19.1996575 Z M7.3535257,8.316618 L4.45235007,8.316618 L4.45235007,21.071169 C5.71178145,21.7171624 7.03116596,22.0401543 8.41054318,22.0401543 C10.3296767,22.0401543 11.9001941,21.3716362 13.1221424,20.03458 C14.3440907,18.6975238 14.9550557,16.9774043 14.9550557,14.8741698 C14.9550557,13.5220905 14.6664403,12.3277717 14.0892009,11.2911776 C13.5119615,10.2545835 12.7248287,9.49968384 11.7277789,9.02645608 C10.730729,8.55322832 9.27265923,8.316618 7.3535257,8.316618 Z" id="Path"></path>
                    </g>
                    <g id="Dots" transform="translate(0.000000, 5.938144)">
                        <ellipse id="Oval-13" cx="9.75110826" cy="9.66464237" rx="2.8786859" ry="2.88442142"></ellipse>
                        <ellipse id="Oval-11" cx="3.03417449" cy="2.93432571" rx="2.8786859" ry="2.88442142"></ellipse>
                        <ellipse id="Oval-12" cx="3.03417449" cy="16.394959" rx="2.8786859" ry="2.88442142"></ellipse>
                    </g>
                </g>
            </g>
        </g>
    </g>
</svg>